<?xml version="1.0" standalone="no"?>
<!DOCTYPE svg PUBLIC "-//W3C//DTD SVG 20010904//EN"
 "http://www.w3.org/TR/2001/REC-SVG-20010904/DTD/svg10.dtd">
<svg version="1.0" xmlns="http://www.w3.org/2000/svg"
 width="220.000000pt" height="229.000000pt" viewBox="0 0 220.000000 229.000000"
 preserveAspectRatio="xMidYMid meet">

<g transform="translate(0.000000,229.000000) scale(0.100000,-0.100000)"
fill="#000000" stroke="none">
<path d="M891 2135 c-205 -45 -383 -145 -526 -296 -120 -127 -196 -266 -243
-439 -22 -83 -25 -115 -25 -250 0 -135 3 -167 25 -250 52 -192 144 -347 287
-482 168 -158 362 -246 589 -267 299 -27 583 75 796 286 89 89 146 169 201
285 61 129 86 234 92 393 11 292 -84 533 -291 741 -153 153 -316 241 -514 280
-93 18 -306 17 -391 -1z m82 -363 c29 -26 38 -49 31 -77 -8 -33 -37 -49 -63
-35 -19 10 -19 12 -3 39 14 24 14 31 3 45 -20 24 -58 20 -77 -9 -21 -32 -12
-57 40 -120 68 -81 76 -96 76 -147 0 -39 -5 -52 -33 -81 -59 -64 -155 -73
-217 -21 -25 21 -30 33 -30 69 0 57 30 95 75 95 18 0 38 -7 45 -15 14 -17 15
-17 -22 -33 -23 -9 -28 -18 -28 -45 0 -42 15 -57 56 -57 65 0 84 77 36 141
-15 20 -42 55 -59 79 -38 50 -44 110 -15 148 38 49 142 62 185 24z m575 -132
c28 1 52 -1 52 -2 0 -2 -9 -44 -20 -94 -24 -109 -25 -144 -5 -144 19 0 19 -10
-1 -38 -23 -34 -94 -23 -94 14 0 12 -7 10 -31 -10 -37 -31 -77 -33 -112 -6
l-26 20 -33 -20 c-47 -28 -82 -26 -107 8 -11 15 -21 21 -21 15 0 -15 -52 -43
-80 -43 -29 0 -60 35 -60 68 0 15 10 73 22 130 l21 102 44 0 c24 0 43 -3 43
-7 0 -5 -9 -48 -20 -97 -24 -108 -25 -136 -5 -136 23 0 43 40 60 120 26 130
20 120 69 120 l44 0 -24 -112 c-14 -65 -20 -116 -15 -121 16 -16 51 3 56 31
16 84 29 120 52 150 30 40 78 64 113 57 14 -3 49 -5 78 -5z m-913 -162 c-10
-47 -145 -681 -145 -684 0 -2 6 -4 13 -4 6 0 63 -26 126 -57 110 -56 117 -58
193 -58 86 0 88 -2 63 -63 -50 -117 -112 -112 -294 28 -93 70 -172 110 -218
110 -18 0 -33 3 -33 8 0 4 32 155 70 336 39 181 69 330 67 332 -2 2 -22 -9
-44 -25 -57 -41 -78 -90 -78 -179 l0 -73 -30 5 c-46 10 -68 38 -68 88 0 128
162 257 326 258 54 0 57 -1 52 -22z m327 -236 c22 -21 32 -42 35 -76 5 -39 9
-46 27 -46 43 0 65 13 91 52 39 59 107 98 171 98 33 0 58 -5 68 -15 8 -8 17
-15 20 -15 3 0 6 7 6 15 0 12 14 15 70 15 42 0 70 -4 70 -10 0 -6 -20 -106
-45 -222 -25 -116 -45 -215 -45 -220 0 -15 60 25 80 52 9 14 22 61 29 104 26
180 133 306 259 306 62 0 122 -54 122 -110 0 -29 26 -25 52 10 20 27 48 41 48
23 0 -13 -41 -77 -67 -104 -15 -17 -29 -50 -38 -92 -7 -36 -22 -82 -33 -103
-25 -48 -87 -109 -125 -123 -66 -25 -156 -6 -194 42 l-20 26 -23 -24 c-13 -14
-41 -33 -62 -42 -40 -18 -41 -19 -58 -98 -6 -27 -20 -64 -32 -82 -56 -92 -218
-98 -247 -10 -21 63 11 112 102 158 31 16 57 36 57 44 0 11 -7 10 -35 -7 -44
-25 -123 -21 -156 8 -49 43 -63 144 -35 238 l14 47 -31 -7 c-18 -3 -32 -7 -32
-8 -27 -135 -68 -215 -132 -260 -81 -57 -200 -43 -245 28 -16 26 -19 44 -15
116 5 94 25 154 74 224 73 103 207 137 275 68z"/>
<path d="M1457 1599 c-46 -27 -78 -181 -41 -196 27 -10 53 29 69 107 20 95 14
114 -28 89z"/>
<path d="M835 1184 c-42 -45 -68 -129 -69 -223 -1 -69 2 -85 17 -95 40 -26 94
38 122 143 11 42 11 52 -1 62 -18 15 -18 49 2 77 38 54 -25 86 -71 36z"/>
<path d="M1264 1175 c-54 -57 -93 -224 -68 -289 10 -25 61 -20 88 8 30 33 84
279 66 302 -20 23 -51 16 -86 -21z"/>
<path d="M1756 1177 c-45 -59 -84 -206 -72 -271 5 -28 13 -37 33 -42 23 -6 32
-1 59 30 38 44 74 160 56 178 -15 15 -15 61 -1 75 6 6 9 21 7 34 -5 40 -50 38
-82 -4z"/>
<path d="M1225 702 c-61 -37 -75 -87 -25 -87 19 0 29 9 43 37 10 21 17 45 15
53 -3 13 -7 12 -33 -3z"/>
</g>
</svg>
